<?xml version="1.0" standalone="no"?>
<!DOCTYPE svg PUBLIC "-//W3C//DTD SVG 20010904//EN"
 "http://www.w3.org/TR/2001/REC-SVG-20010904/DTD/svg10.dtd">
<svg version="1.0" xmlns="http://www.w3.org/2000/svg"
 width="1000.000000pt" height="1000.000000pt" viewBox="0 0 1000.000000 1000.000000"
 preserveAspectRatio="xMidYMid meet">
<metadata>
Created by potrace 1.11, written by Peter Selinger 2001-2013
</metadata>
<g transform="translate(0.000000,1000.000000) scale(0.100000,-0.100000)"
fill="#000000" stroke="none">
<path d="M9680 6879 c0 -5 5 -7 10 -4 6 3 10 8 10 11 0 2 -4 4 -10 4 -5 0 -10
-5 -10 -11z"/>
<path d="M9435 6869 c-44 -3 -127 -9 -185 -13 -58 -4 -116 -9 -130 -11 -14 -2
-59 -6 -100 -10 -41 -3 -120 -10 -175 -16 -55 -5 -125 -12 -155 -15 -53 -5
-187 -20 -260 -29 -19 -2 -78 -9 -130 -15 -52 -6 -142 -18 -200 -26 -58 -8
-123 -17 -145 -20 -822 -105 -1906 -338 -2745 -590 -469 -141 -1130 -372
-1425 -499 -16 -7 -122 -52 -235 -100 -530 -224 -1075 -498 -1546 -776 -553
-325 -1094 -704 -1519 -1063 -134 -114 -299 -262 -392 -351 l-94 -90 37 -60
c21 -33 39 -62 41 -65 6 -7 963 -6 975 1 5 3 62 57 126 120 694 679 1596 1342
2492 1831 36 19 88 48 115 63 232 128 656 335 940 459 72 32 144 63 160 71
119 53 458 189 655 262 933 348 1890 606 2890 782 124 22 245 43 270 46 25 3
70 10 100 15 52 9 471 65 555 75 22 2 72 7 110 11 91 8 93 9 101 16 7 7 -11 7
-131 -3z"/>
<path d="M9593 6873 c9 -2 25 -2 35 0 9 3 1 5 -18 5 -19 0 -27 -2 -17 -5z"/>
<path d="M107 5455 l-27 -55 53 -38 c48 -36 513 -376 702 -513 44 -32 85 -62
90 -66 18 -15 255 -187 302 -220 29 -20 51 -29 57 -24 6 5 72 43 146 84 74 41
152 84 173 96 22 12 119 62 218 112 98 50 179 94 179 97 -1 4 -178 136 -394
295 l-394 287 -539 0 -539 0 -27 -55z"/>
<path d="M2608 4232 c-224 -172 -438 -345 -435 -354 1 -4 166 -127 367 -273
201 -147 434 -317 518 -378 l153 -112 540 -1 540 0 15 28 c41 79 58 59 -209
254 -133 97 -278 203 -322 236 -224 166 -968 709 -983 717 -15 8 -50 -15 -184
-117z"/>
</g>
</svg>
