<svg id="haut-bas" xmlns="http://www.w3.org/2000/svg" xmlns:xlink="http://www.w3.org/1999/xlink" viewBox="0 0 162.29 115.5"><defs><style>.cls-1{fill:#474645;}.cls-2{fill:url(#Dégradé_sans_nom_57);}.cls-3{fill:url(#Dégradé_sans_nom_121);}.cls-4{fill:none;stroke:#d8d8d8;stroke-miterlimit:10;}</style><linearGradient id="Dégradé_sans_nom_57" x1="19.75" y1="57.5" x2="142.75" y2="57.5" gradientUnits="userSpaceOnUse"><stop offset="0" stop-color="#fff"/><stop offset="0.18" stop-color="#f9f9f9"/><stop offset="0.43" stop-color="#e6e6e6"/><stop offset="0.72" stop-color="#c9c9c9"/><stop offset="1" stop-color="#a5a5a5"/></linearGradient><linearGradient id="Dégradé_sans_nom_121" x1="542" y1="260" x2="545" y2="260" gradientUnits="userSpaceOnUse"><stop offset="0" stop-color="#fff"/><stop offset="0.07" stop-color="#f9f9f9"/><stop offset="0.17" stop-color="#e6e6e6"/><stop offset="0.28" stop-color="#c9c9c9"/><stop offset="0.39" stop-color="#a5a5a5"/></linearGradient></defs><title>haut-2</title><path class="cls-1" d="M487.05,207.89l-21.5,52.21s-4.59,42,3.43,44a112.48,112.48,0,0,1,15,4.85Z" transform="translate(-464.25 -198)"/><path class="cls-1" d="M603,208l22,52s5,42-3,44a112.48,112.48,0,0,0-15,5Z" transform="translate(-464.25 -198)"/><rect class="cls-2" x="19.75" width="123" height="115"/><rect class="cls-1" x="120.75" y="2" width="5" height="7"/><rect class="cls-1" x="58.75" y="2" width="7" height="7"/><rect class="cls-1" x="20.75" y="2" width="3" height="8"/><rect class="cls-1" x="20.75" y="108" width="2" height="6"/><rect class="cls-1" x="59.75" y="107" width="5" height="7"/><rect class="cls-1" x="121.75" y="110" width="4" height="4"/><path class="cls-3" d="M544,210s-2,62-2,100h3S545,259,544,210Z" transform="translate(-464.25 -198)"/><line class="cls-4" x1="20.75" y1="115" x2="140.75" y2="115"/></svg>